<svg width="544" height="544" viewBox="0 0 544 544" fill="none" xmlns="http://www.w3.org/2000/svg">
<path d="M192 0C236.2 0 272 35.8 272 80C272 88.8 264.8 96 256 96C211.8 96 176 60.2 176 16C176 7.2 183.2 0 192 0ZM72 16H120C133.3 16 144 26.7 144 40C144 53.3 133.3 64 120 64H72C58.7 64 48 53.3 48 40C48 26.7 58.7 16 72 16ZM40 88H152C165.3 88 176 98.7 176 112C176 125.3 165.3 136 152 136H40C26.7 136 16 125.3 16 112C16 98.7 26.7 88 40 88ZM48 184C48 170.7 58.7 160 72 160H120C133.3 160 144 170.7 144 184C144 197.3 133.3 208 120 208H72C58.7 208 48 197.3 48 184ZM288 16C288 7.2 295.2 0 304 0C348.2 0 384 35.8 384 80C384 88.8 376.8 96 368 96C323.8 96 288 60.2 288 16ZM416 0C460.2 0 496 35.8 496 80C496 88.8 488.8 96 480 96C435.8 96 400 60.2 400 16C400 7.2 407.2 0 416 0ZM496 144C496 188.2 460.2 224 416 224C407.2 224 400 216.8 400 208C400 163.8 435.8 128 480 128C488.8 128 496 135.2 496 144ZM368 128C376.8 128 384 135.2 384 144C384 188.2 348.2 224 304 224C295.2 224 288 216.8 288 208C288 163.8 323.8 128 368 128ZM272 144C272 188.2 236.2 224 192 224C183.2 224 176 216.8 176 208C176 163.8 211.8 128 256 128C264.8 128 272 135.2 272 144ZM16 320C16 293.5 37.5 272 64 272H480C506.5 272 528 293.5 528 320V480C528 506.5 506.5 528 480 528H64C37.5 528 16 506.5 16 480V320ZM64 432V480H112C112 453.5 90.5 432 64 432ZM112 320H64V368C90.5 368 112 346.5 112 320ZM480 432C453.5 432 432 453.5 432 480H480V432ZM432 320C432 346.5 453.5 368 480 368V320H432ZM336 400C336 364.7 307.3 336 272 336C236.7 336 208 364.7 208 400C208 435.3 236.7 464 272 464C307.3 464 336 435.3 336 400Z" fill="#007DBC"/>
</svg>
